<?xml version="1.0" encoding="UTF-8"?>
<svg xmlns="http://www.w3.org/2000/svg" xmlns:xlink="http://www.w3.org/1999/xlink" width="59pt" height="27pt" viewBox="0 0 59 27" version="1.1">
<defs>
<linearGradient id="linear0" gradientUnits="userSpaceOnUse" x1="337.43359" y1="263.58591" x2="394.418" y2="263.58591" gradientTransform="matrix(0.125532,0,0,0.126761,-2.642447,-16.245)">
<stop offset="0" style="stop-color:rgb(14.509804%,51.372549%,65.098039%);stop-opacity:1;"/>
<stop offset="0.5" style="stop-color:rgb(14.509804%,49.411765%,63.921569%);stop-opacity:1;"/>
<stop offset="1" style="stop-color:rgb(13.72549%,47.843137%,62.745098%);stop-opacity:1;"/>
</linearGradient>
<linearGradient id="linear1" gradientUnits="userSpaceOnUse" x1="405.81641" y1="263.58591" x2="490.94919" y2="263.58591" gradientTransform="matrix(0.125532,0,0,0.126761,-2.642447,-16.245)">
<stop offset="0" style="stop-color:rgb(14.509804%,51.372549%,65.098039%);stop-opacity:1;"/>
<stop offset="0.5" style="stop-color:rgb(14.509804%,49.411765%,63.921569%);stop-opacity:1;"/>
<stop offset="1" style="stop-color:rgb(13.72549%,47.843137%,62.745098%);stop-opacity:1;"/>
</linearGradient>
<linearGradient id="linear2" gradientUnits="userSpaceOnUse" x1="261.1416" y1="281.26169" x2="316.3848" y2="281.26169" gradientTransform="matrix(0.125532,0,0,0.126761,-2.642447,-16.245)">
<stop offset="0" style="stop-color:rgb(14.509804%,51.372549%,65.098039%);stop-opacity:1;"/>
<stop offset="0.5" style="stop-color:rgb(14.509804%,49.411765%,63.921569%);stop-opacity:1;"/>
<stop offset="1" style="stop-color:rgb(13.72549%,47.843137%,62.745098%);stop-opacity:1;"/>
</linearGradient>
<linearGradient id="linear3" gradientUnits="userSpaceOnUse" x1="291.3779" y1="235.7881" x2="291.3779" y2="222.88181" gradientTransform="matrix(0.125532,0,0,0.126761,-2.642447,-16.245)">
<stop offset="0" style="stop-color:rgb(14.509804%,51.372549%,65.098039%);stop-opacity:1;"/>
<stop offset="0.5" style="stop-color:rgb(14.509804%,49.411765%,63.921569%);stop-opacity:1;"/>
<stop offset="1" style="stop-color:rgb(13.72549%,47.843137%,62.745098%);stop-opacity:1;"/>
</linearGradient>
<linearGradient id="linear4" gradientUnits="userSpaceOnUse" x1="125.481" y1="341.00101" x2="125.4809" y2="128.05569" gradientTransform="matrix(0.125532,0,0,0.126761,-2.642447,-16.245)">
<stop offset="0" style="stop-color:rgb(14.509804%,51.372549%,65.098039%);stop-opacity:1;"/>
<stop offset="0.5" style="stop-color:rgb(14.509804%,49.411765%,63.921569%);stop-opacity:1;"/>
<stop offset="1" style="stop-color:rgb(13.72549%,47.843137%,62.745098%);stop-opacity:1;"/>
</linearGradient>
</defs>
<g id="surface1">
<path style=" stroke:none;fill-rule:nonzero;fill:url(#linear0);" d="M 46.871094 22.328125 L 39.714844 22.328125 L 39.714844 12.007812 L 41.496094 12.007812 L 41.496094 20.691406 L 46.871094 20.691406 Z M 46.871094 22.328125 "/>
<path style=" stroke:none;fill-rule:nonzero;fill:url(#linear1);" d="M 53.628906 22.503906 C 52.839844 22.503906 52.121094 22.363281 51.46875 22.085938 C 50.816406 21.804688 50.257812 21.421875 49.789062 20.941406 C 49.324219 20.460938 48.957031 19.898438 48.695312 19.253906 C 48.433594 18.609375 48.300781 17.925781 48.300781 17.195312 L 48.300781 17.167969 C 48.300781 16.4375 48.433594 15.753906 48.695312 15.109375 C 48.957031 14.464844 49.328125 13.902344 49.804688 13.414062 C 50.28125 12.929688 50.847656 12.542969 51.5 12.257812 C 52.148438 11.972656 52.871094 11.832031 53.660156 11.832031 C 54.445312 11.832031 55.167969 11.96875 55.820312 12.25 C 56.472656 12.53125 57.03125 12.910156 57.496094 13.394531 C 57.964844 13.875 58.332031 14.4375 58.59375 15.082031 C 58.855469 15.726562 58.988281 16.410156 58.988281 17.136719 L 58.988281 17.167969 C 58.988281 17.894531 58.855469 18.578125 58.59375 19.222656 C 58.332031 19.867188 57.960938 20.433594 57.484375 20.917969 C 57.007812 21.40625 56.441406 21.792969 55.789062 22.074219 C 55.136719 22.359375 54.417969 22.503906 53.628906 22.503906 M 53.660156 20.839844 C 54.164062 20.839844 54.625 20.742188 55.046875 20.550781 C 55.46875 20.359375 55.828125 20.097656 56.128906 19.769531 C 56.429688 19.441406 56.667969 19.054688 56.835938 18.613281 C 57.003906 18.167969 57.089844 17.699219 57.089844 17.195312 L 57.089844 17.167969 C 57.089844 16.667969 57.003906 16.191406 56.835938 15.746094 C 56.667969 15.296875 56.429688 14.910156 56.125 14.578125 C 55.816406 14.25 55.453125 13.988281 55.027344 13.789062 C 54.597656 13.59375 54.132812 13.496094 53.628906 13.496094 C 53.125 13.496094 52.664062 13.589844 52.242188 13.785156 C 51.820312 13.976562 51.460938 14.234375 51.15625 14.566406 C 50.859375 14.894531 50.621094 15.28125 50.453125 15.722656 C 50.285156 16.164062 50.199219 16.636719 50.199219 17.136719 L 50.199219 17.167969 C 50.199219 17.667969 50.285156 18.140625 50.453125 18.589844 C 50.621094 19.039062 50.859375 19.425781 51.164062 19.753906 C 51.472656 20.085938 51.835938 20.347656 52.261719 20.542969 C 52.691406 20.738281 53.15625 20.839844 53.660156 20.839844 Z M 53.660156 20.839844 "/>
<path style=" stroke:none;fill-rule:nonzero;fill:url(#linear2);" d="M 30.140625 16.488281 L 30.140625 22.328125 L 31.921875 22.328125 L 31.921875 18.125 L 37.074219 18.125 L 37.074219 16.488281 Z M 30.140625 16.488281 "/>
<path style=" stroke:none;fill-rule:nonzero;fill:url(#linear3);" d="M 30.140625 12.007812 L 30.140625 13.644531 L 37.730469 13.644531 L 37.730469 12.007812 Z M 30.140625 12.007812 "/>
<path style=" stroke:none;fill-rule:nonzero;fill:url(#linear4);" d="M 13.109375 19.214844 C 11.601562 21.222656 11.601562 23.203125 13.109375 25.144531 C 14.617188 23.203125 14.617188 21.222656 13.109375 19.214844 M 13.109375 2.800781 C 9.648438 7.207031 9.648438 11.6875 13.109375 16.25 C 16.570312 11.6875 16.570312 7.207031 13.109375 2.800781 Z M 5.273438 22.441406 C 6.546875 19.515625 9.21875 18.070312 12.203125 18.105469 C 8.417969 14.140625 5.128906 12.539062 2.339844 13.3125 C 2.710938 15.5 4.21875 17.359375 6.859375 18.890625 C 3.820312 17.921875 1.53125 15.578125 0 11.859375 C 4.558594 11.074219 8.152344 12.210938 10.773438 15.261719 C 8.382812 10.101562 9.160156 5.007812 13.109375 -0.0117188 C 17.058594 5.007812 17.835938 10.097656 15.445312 15.261719 C 18.066406 12.210938 21.660156 11.074219 26.21875 11.859375 C 24.6875 15.578125 22.398438 17.921875 19.359375 18.890625 C 22 17.359375 23.507812 15.5 23.878906 13.3125 C 21.089844 12.542969 17.800781 14.140625 14.015625 18.105469 C 17 18.070312 19.671875 19.515625 20.945312 22.441406 C 18.691406 22.953125 16.835938 22.601562 15.382812 21.394531 C 16.972656 22.207031 18.339844 22.328125 19.492188 21.757812 C 18.988281 20.21875 16.757812 19.152344 13.90625 18.5625 C 15.53125 21.410156 15.265625 24.21875 13.109375 26.980469 C 10.953125 24.21875 10.6875 21.410156 12.3125 18.5625 C 9.460938 19.152344 7.230469 20.21875 6.726562 21.757812 C 7.878906 22.328125 9.246094 22.207031 10.835938 21.394531 C 9.382812 22.601562 7.527344 22.953125 5.273438 22.441406 Z M 5.273438 22.441406 "/>
</g>
</svg>
