<?xml version="1.0" encoding="UTF-8" standalone="no"?>
<!-- Generator: Adobe Illustrator 15.0.0, SVG Export Plug-In . SVG Version: 6.00 Build 0)  -->

<svg
   xmlns:dc="http://purl.org/dc/elements/1.1/"
   xmlns:cc="http://creativecommons.org/ns#"
   xmlns:rdf="http://www.w3.org/1999/02/22-rdf-syntax-ns#"
   xmlns:svg="http://www.w3.org/2000/svg"
   xmlns="http://www.w3.org/2000/svg"
   xmlns:sodipodi="http://sodipodi.sourceforge.net/DTD/sodipodi-0.dtd"
   xmlns:inkscape="http://www.inkscape.org/namespaces/inkscape"
   version="1.1"
   id="Layer_1"
   x="0px"
   y="0px"
   width="469.89999"
   height="212.84599"
   viewBox="0 0 469.89999 212.84599"
   enable-background="new 0 0 512 512"
   xml:space="preserve"
   sodipodi:docname="FLO_horizontal_text.svg"
   inkscape:version="0.92.4 (unknown)"><metadata
     id="metadata4665"><rdf:RDF><cc:Work
         rdf:about=""><dc:format>image/svg+xml</dc:format><dc:type
           rdf:resource="http://purl.org/dc/dcmitype/StillImage" /><dc:title></dc:title></cc:Work></rdf:RDF></metadata><defs
     id="defs4663" /><sodipodi:namedview
     pagecolor="#ffffff"
     bordercolor="#666666"
     borderopacity="1"
     objecttolerance="10"
     gridtolerance="10"
     guidetolerance="10"
     inkscape:pageopacity="0"
     inkscape:pageshadow="2"
     inkscape:window-width="1366"
     inkscape:window-height="732"
     id="namedview4661"
     showgrid="false"
     inkscape:zoom="1.3027344"
     inkscape:cx="219.90846"
     inkscape:cy="85.00108"
     inkscape:window-x="0"
     inkscape:window-y="0"
     inkscape:window-maximized="1"
     inkscape:current-layer="Layer_1"
     fit-margin-top="-0.1"
     fit-margin-left="0"
     fit-margin-right="0"
     fit-margin-bottom="0" /><linearGradient
     id="SVGID_1_"
     gradientUnits="userSpaceOnUse"
     x1="337.43359"
     y1="263.58591"
     x2="394.418"
     y2="263.58591"><stop
       offset="0"
       style="stop-color:#2583A6"
       id="stop4615" /><stop
       offset="0.5"
       style="stop-color:#257EA3"
       id="stop4617" /><stop
       offset="1"
       style="stop-color:#237AA0"
       id="stop4619" /></linearGradient><polygon
     points="394.418,304.29 337.434,304.29 337.434,222.882 351.623,222.882 351.623,291.387 394.418,291.387 "
     id="polygon4622"
     style="fill:url(#SVGID_1_)"
     transform="translate(-21.05,-128.155)" /><linearGradient
     id="SVGID_2_"
     gradientUnits="userSpaceOnUse"
     x1="405.81641"
     y1="263.58591"
     x2="490.94919"
     y2="263.58591"
     gradientTransform="translate(-21.05,-128.155)"><stop
       offset="0"
       style="stop-color:#2583A6"
       id="stop4624" /><stop
       offset="0.5"
       style="stop-color:#257EA3"
       id="stop4626" /><stop
       offset="1"
       style="stop-color:#237AA0"
       id="stop4628" /></linearGradient><path
     d="m 427.217,177.532 c -6.278,0 -12.015,-1.107 -17.215,-3.312 -5.189,-2.209 -9.647,-5.215 -13.372,-9.017 -3.723,-3.797 -6.629,-8.232 -8.72,-13.318 -2.098,-5.078 -3.144,-10.482 -3.144,-16.224 v -0.232 c 0,-5.744 1.046,-11.143 3.144,-16.226 2.091,-5.083 5.036,-9.53 8.834,-13.373 3.802,-3.836 8.299,-6.884 13.497,-9.134 5.192,-2.238 10.929,-3.367 17.211,-3.367 6.276,0 12.017,1.106 17.209,3.312 5.197,2.211 9.653,5.217 13.374,9.018 3.724,3.799 6.632,8.233 8.724,13.311 2.094,5.081 3.141,10.489 3.141,16.228 v 0.233 c 0,5.733 -1.047,11.143 -3.141,16.218 -2.093,5.082 -5.038,9.544 -8.838,13.382 -3.8,3.842 -8.295,6.882 -13.49,9.12 -5.195,2.255 -10.932,3.381 -17.214,3.381 m 0.235,-13.142 c 4.013,0 7.694,-0.757 11.065,-2.272 3.354,-1.506 6.222,-3.564 8.627,-6.162 2.383,-2.595 4.269,-5.641 5.603,-9.126 1.356,-3.491 2.036,-7.213 2.036,-11.168 v -0.232 c 0,-3.952 -0.68,-7.692 -2.036,-11.222 -1.333,-3.529 -3.237,-6.593 -5.663,-9.19 -2.44,-2.591 -5.352,-4.673 -8.743,-6.224 -3.406,-1.55 -7.107,-2.323 -11.124,-2.323 -4.013,0 -7.691,0.752 -11.063,2.269 -3.356,1.509 -6.226,3.563 -8.627,6.159 -2.388,2.601 -4.268,5.649 -5.602,9.141 -1.355,3.486 -2.036,7.206 -2.036,11.16 v 0.233 c 0,3.956 0.679,7.69 2.036,11.222 1.334,3.527 3.232,6.594 5.658,9.188 2.444,2.598 5.352,4.672 8.743,6.218 3.411,1.553 7.109,2.329 11.126,2.329 z"
     id="path4631"
     inkscape:connector-curvature="0"
     style="fill:url(#SVGID_2_)" /><linearGradient
     id="SVGID_3_"
     gradientUnits="userSpaceOnUse"
     x1="261.1416"
     y1="281.26169"
     x2="316.3848"
     y2="281.26169"><stop
       offset="0"
       style="stop-color:#2583A6"
       id="stop4633" /><stop
       offset="0.5"
       style="stop-color:#257EA3"
       id="stop4635" /><stop
       offset="1"
       style="stop-color:#237AA0"
       id="stop4637" /></linearGradient><polygon
     points="261.142,258.232 261.142,304.29 275.331,304.29 275.331,271.142 316.385,271.142 316.385,258.232 275.331,258.232 "
     id="polygon4640"
     style="fill:url(#SVGID_3_)"
     transform="translate(-21.05,-128.155)" /><linearGradient
     id="SVGID_4_"
     gradientUnits="userSpaceOnUse"
     x1="291.3779"
     y1="235.7881"
     x2="291.3779"
     y2="222.88181"><stop
       offset="0"
       style="stop-color:#2583A6"
       id="stop4642" /><stop
       offset="0.5"
       style="stop-color:#257EA3"
       id="stop4644" /><stop
       offset="1"
       style="stop-color:#237AA0"
       id="stop4646" /></linearGradient><polygon
     points="261.142,222.882 261.142,235.788 275.331,235.788 321.614,235.788 321.614,222.882 "
     id="polygon4649"
     style="fill:url(#SVGID_4_)"
     transform="translate(-21.05,-128.155)" /><linearGradient
     id="SVGID_5_"
     gradientUnits="userSpaceOnUse"
     x1="125.481"
     y1="341.00101"
     x2="125.4809"
     y2="128.05569"
     gradientTransform="translate(-21.05,-128.155)"><stop
       offset="0"
       style="stop-color:#2583A6"
       id="stop4651" /><stop
       offset="0.5"
       style="stop-color:#257EA3"
       id="stop4653" /><stop
       offset="1"
       style="stop-color:#237AA0"
       id="stop4655" /></linearGradient><path
     d="m 104.43,151.572 c -12.005,15.862 -12.005,31.461 0,46.797 12.01,-15.336 12.009,-30.935 0,-46.797 m 0,-129.492 c -27.559,34.767 -27.559,70.133 0,106.11 27.566,-35.977 27.564,-71.344 0,-106.11 z M 42.006,177.043 C 52.166,153.951 73.451,142.555 97.22,142.842 67.063,111.547 40.869,98.934 18.64,105.024 21.594,122.279 33.596,136.941 54.639,149.021 30.427,141.376 12.211,122.884 0,93.543 36.328,87.372 64.932,96.328 85.813,120.389 66.772,79.675 72.972,39.513 104.428,-0.1 c 31.459,39.613 37.663,79.774 18.622,120.489 20.883,-24.062 49.485,-33.018 85.812,-26.846 -12.211,29.341 -30.423,47.834 -54.637,55.478 21.044,-12.08 33.042,-26.742 35.999,-43.997 -22.23,-6.089 -48.425,6.524 -78.581,37.818 23.77,-0.287 45.053,11.11 55.215,34.201 -17.962,4.017 -32.733,1.268 -44.307,-8.254 12.642,6.396 23.558,7.348 32.737,2.861 -4.021,-12.157 -21.792,-20.554 -44.521,-25.198 12.966,22.459 10.855,44.594 -6.338,66.394 -17.188,-21.8 -19.298,-43.935 -6.334,-66.394 -22.727,4.645 -40.5,13.041 -44.519,25.198 9.179,4.485 20.091,3.535 32.737,-2.861 -11.575,9.522 -26.345,12.271 -44.307,8.254 z"
     id="path4658"
     inkscape:connector-curvature="0"
     style="fill:url(#SVGID_5_)" /></svg>