<svg width="128" height="128" viewBox="0 0 128 128" fill="none" xmlns="http://www.w3.org/2000/svg">
<g clip-path="url(#clip0_3_34)">
<path fill-rule="evenodd" clip-rule="evenodd" d="M50.5679 101.136C78.4958 101.136 101.136 78.4958 101.136 50.5679C101.136 47.0696 100.781 43.6543 100.104 40.3561C104.75 47.3575 107.457 55.7578 107.457 64.7901C107.457 89.227 87.6468 109.037 63.2099 109.037C52.318 109.037 42.3453 105.102 34.6362 98.575C39.6451 100.236 45.0015 101.136 50.5679 101.136ZM34.6362 98.575C14.5144 91.9008 0 72.9293 0 50.5679C0 22.64 22.64 0 50.5679 0C74.9975 0 95.381 17.3234 100.104 40.3561C92.1803 28.4153 78.6144 20.5432 63.2099 20.5432C38.773 20.5432 18.963 40.3532 18.963 64.7901C18.963 78.3351 25.0492 90.4586 34.6362 98.575Z" fill="#4F56FF"/>
<circle cx="113.333" cy="113.333" r="14.6667" fill="#4F56FF"/>
</g>
<defs>
<clipPath id="clip0_3_34">
<rect width="128" height="128" fill="white"/>
</clipPath>
</defs>
</svg>